<?xml version="1.0" encoding="UTF-8" standalone="no"?>
<svg
   height="16"
   viewBox="0 0 16 16"
   width="16"
   version="1.1"
   id="svg4"
   sodipodi:docname="AdvancedTextLabel.svg"
   inkscape:version="1.3.2 (091e20ef0f, 2023-11-25, custom)"
   xmlns:inkscape="http://www.inkscape.org/namespaces/inkscape"
   xmlns:sodipodi="http://sodipodi.sourceforge.net/DTD/sodipodi-0.dtd"
   xmlns="http://www.w3.org/2000/svg"
   xmlns:svg="http://www.w3.org/2000/svg"
   xmlns:rdf="http://www.w3.org/1999/02/22-rdf-syntax-ns#"
   xmlns:cc="http://creativecommons.org/ns#"
   xmlns:dc="http://purl.org/dc/elements/1.1/">
  <path
     id="path123255"
     style="display:inline;fill:#8eef97;fill-opacity:1;stroke-width:1.0645"
     d="M 4.0039062 1.7441406 L 3.5078125 3.5703125 L 3.5097656 3.5703125 L 7.5546875 3.5703125 L 7.5566406 3.5703125 L 7.0605469 1.7441406 L 4.0039062 1.7441406 z M 3.0117188 5.3964844 L 2.515625 7.2226562 L 4.7070312 7.2226562 C 4.8652457 6.5632571 4.996495 6.0255923 5.1386719 5.3964844 L 3.0117188 5.3964844 z M 5.9257812 5.3964844 C 6.0679581 6.0255923 6.1992074 6.5632571 6.3574219 7.2226562 L 8.5488281 7.2226562 L 8.0527344 5.3964844 L 5.9257812 5.3964844 z M 2.0195312 9.0488281 L 1.5273438 10.875 L 1.5390625 10.875 L 9.5253906 10.875 L 9.5390625 10.875 L 9.0449219 9.0488281 L 9.0351562 9.0488281 L 6.796875 9.0488281 L 6.7773438 9.0488281 L 6.9160156 9.6230469 L 4.1503906 9.6230469 L 4.2871094 9.0488281 L 4.2695312 9.0488281 L 2.0292969 9.0488281 L 2.0195312 9.0488281 z M 1.03125 12.701172 L 0.53515625 14.527344 L 0.60351562 14.527344 L 2.9433594 14.527344 L 2.9628906 14.527344 L 3.40625 12.701172 L 3.0175781 12.701172 L 1.0449219 12.701172 L 1.03125 12.701172 z M 7.6601562 12.701172 L 8.1035156 14.527344 L 8.1210938 14.527344 L 10.460938 14.527344 L 10.529297 14.527344 L 10.033203 12.701172 L 10.019531 12.701172 L 8.0488281 12.701172 L 7.6601562 12.701172 z " />
  <metadata
     id="metadata10">
    <rdf:RDF>
      <cc:Work
         rdf:about="">
        <dc:format>image/svg+xml</dc:format>
        <dc:type
           rdf:resource="http://purl.org/dc/dcmitype/StillImage" />
      </cc:Work>
    </rdf:RDF>
  </metadata>
  <defs
     id="defs8">
    <rect
       x="-10.926054"
       y="2.0475544"
       width="12.140338"
       height="12.73041"
       id="rect15711" />
    <rect
       x="-10.926054"
       y="2.0475544"
       width="12.140338"
       height="12.73041"
       id="rect109769" />
    <rect
       x="-10.926054"
       y="2.0475544"
       width="12.140338"
       height="12.73041"
       id="rect138652" />
  </defs>
  <sodipodi:namedview
     pagecolor="#282a36"
     bordercolor="#666666"
     borderopacity="1"
     objecttolerance="10"
     gridtolerance="10"
     guidetolerance="10"
     inkscape:pageopacity="0.31372549"
     inkscape:pageshadow="2"
     inkscape:window-width="1739"
     inkscape:window-height="752"
     id="namedview6"
     showgrid="false"
     inkscape:zoom="26.53125"
     inkscape:cx="13.135453"
     inkscape:cy="10.572438"
     inkscape:window-x="587"
     inkscape:window-y="187"
     inkscape:window-maximized="0"
     inkscape:current-layer="svg4"
     inkscape:document-rotation="0"
     inkscape:pagecheckerboard="true"
     inkscape:showpageshadow="0"
     inkscape:deskcolor="#d1d1d1" />
  <path
     d="M 12.573737,3.0315155 9.9679331,5.4896063 H 11.705136 V 12.044514 H 9.9679331 l 2.6058039,2.45809 2.605804,-2.45809 H 13.442339 V 5.4896063 h 1.737202 z"
     fill="#a5efac"
     id="path2"
     style="fill:#8eef97;fill-opacity:1;stroke-width:0.843623"
     sodipodi:nodetypes="ccccccccccc" />
</svg>
